<svg xmlns="http://www.w3.org/2000/svg" xmlns:xlink="http://www.w3.org/1999/xlink" width="40" zoomAndPan="magnify" viewBox="0 0 30 30.000001" height="40" preserveAspectRatio="xMidYMid meet" version="1.0"><defs><clipPath id="93508cd4c5"><path d="M 4 3 L 17 3 L 17 26 L 4 26 Z M 4 3 " clip-rule="nonzero"/></clipPath><clipPath id="9659f76edc"><path d="M 26.917969 13.691406 L 13.433594 27.914062 L 0.265625 15.429688 L 13.75 1.207031 Z M 26.917969 13.691406 " clip-rule="nonzero"/></clipPath><clipPath id="4aaca80d6f"><path d="M 26.917969 13.691406 L 13.433594 27.914062 L 0.265625 15.429688 L 13.75 1.207031 Z M 26.917969 13.691406 " clip-rule="nonzero"/></clipPath><clipPath id="9af9efe57c"><path d="M 15.574219 3.449219 L 27.914062 3.449219 L 27.914062 25.222656 L 15.574219 25.222656 Z M 15.574219 3.449219 " clip-rule="nonzero"/></clipPath><clipPath id="ab467e0c14"><path d="M 3 3 L 16 3 L 16 26 L 3 26 Z M 3 3 " clip-rule="nonzero"/></clipPath><clipPath id="0489c3221a"><path d="M 3.390625 25.949219 L 2.859375 3.457031 L 15.195312 3.164062 L 15.726562 25.65625 Z M 3.390625 25.949219 " clip-rule="nonzero"/></clipPath><clipPath id="5ce3df99fc"><path d="M 3.390625 25.949219 L 2.859375 3.457031 L 15.195312 3.164062 L 15.726562 25.65625 Z M 3.390625 25.949219 " clip-rule="nonzero"/></clipPath></defs><g clip-path="url(#93508cd4c5)"><g clip-path="url(#9659f76edc)"><g clip-path="url(#4aaca80d6f)"><path fill="#ffb92b" d="M 15.652344 25.574219 C 14.972656 25.777344 13.296875 25.308594 12.5 25.03125 C 10.316406 24.285156 8.347656 23.179688 6.851562 21.164062 C 5.289062 19.0625 4.734375 16.785156 4.875 14.664062 C 5.183594 10.015625 8.335938 6.601562 12.03125 4.628906 C 13.019531 4.09375 14.796875 3.289062 16.0625 3.40625 Z M 15.652344 25.574219 " fill-opacity="1" fill-rule="nonzero"/></g></g></g><g clip-path="url(#9af9efe57c)"><path fill="#ff4b3d" d="M 27.914062 8.234375 C 27.867188 8.339844 27.820312 8.398438 27.707031 8.472656 C 26.910156 8.996094 25.953125 9.449219 25.089844 9.917969 C 23.023438 11.035156 20.921875 12.125 18.882812 13.269531 C 20.222656 13.167969 21.59375 13.140625 22.941406 13.085938 C 24.523438 13.019531 26.113281 12.929688 27.699219 12.902344 L 27.777344 16.320312 C 24.875 16.269531 21.933594 16.109375 19.042969 15.921875 C 21.972656 17.492188 24.761719 19.195312 27.6875 20.769531 C 27.035156 21.625 26.40625 22.496094 25.765625 23.359375 L 18.40625 17.261719 L 18.570312 18.976562 C 18.792969 21.144531 18.90625 23.320312 19.09375 25.492188 C 18.019531 25.542969 16.917969 25.503906 15.84375 25.5 C 15.898438 23.367188 15.792969 21.226562 15.792969 19.089844 L 15.789062 3.527344 C 16.960938 3.511719 18.132812 3.488281 19.304688 3.457031 C 19.125 6.027344 18.824219 8.601562 18.570312 11.171875 C 19.804688 10.175781 21.074219 9.203125 22.324219 8.214844 C 23.386719 7.371094 24.433594 6.5 25.566406 5.710938 C 26.332031 6.5625 27.140625 7.390625 27.914062 8.234375 Z M 27.914062 8.234375 " fill-opacity="1" fill-rule="nonzero"/></g><g clip-path="url(#ab467e0c14)"><g clip-path="url(#0489c3221a)"><g clip-path="url(#5ce3df99fc)"><path fill="#7877f7" d="M 3.277344 21.0625 C 3.320312 20.953125 3.367188 20.894531 3.480469 20.816406 C 4.285156 20.261719 5.25 19.777344 6.121094 19.277344 C 8.203125 18.082031 10.324219 16.921875 12.382812 15.703125 C 11.015625 15.835938 9.617188 15.898438 8.242188 15.984375 C 6.621094 16.089844 5 16.222656 3.378906 16.289062 L 3.21875 12.796875 C 6.183594 12.78125 9.195312 12.871094 12.15625 12.992188 C 9.125 11.460938 6.230469 9.785156 3.203125 8.25 C 3.847656 7.355469 4.46875 6.453125 5.101562 5.554688 L 12.773438 11.609375 L 12.566406 9.863281 C 12.285156 7.648438 12.113281 5.429688 11.871094 3.214844 C 12.96875 3.136719 14.09375 3.148438 15.195312 3.128906 C 15.1875 5.308594 15.347656 7.496094 15.398438 9.675781 L 15.78125 25.585938 C 14.582031 25.628906 13.382812 25.679688 12.1875 25.742188 C 12.308594 23.105469 12.554688 20.46875 12.753906 17.835938 C 11.515625 18.886719 10.238281 19.910156 8.988281 20.953125 C 7.921875 21.835938 6.875 22.753906 5.734375 23.585938 C 4.933594 22.738281 4.082031 21.910156 3.277344 21.0625 Z M 3.277344 21.0625 " fill-opacity="1" fill-rule="nonzero"/></g></g></g></svg>